<?xml version="1.0" encoding="UTF-8" standalone="no"?>
<svg
   width="16"
   height="16"
   viewBox="0 0 16 16"
   fill="currentColor"
   version="1.1"
   id="svg1"
   sodipodi:docname="activity-icon.svg"
   xml:space="preserve"
   inkscape:version="1.4.2 (ebf0e940d0, 2025-05-08)"
   xmlns:inkscape="http://www.inkscape.org/namespaces/inkscape"
   xmlns:sodipodi="http://sodipodi.sourceforge.net/DTD/sodipodi-0.dtd"
   xmlns="http://www.w3.org/2000/svg"
   xmlns:svg="http://www.w3.org/2000/svg"><defs
     id="defs1" /><sodipodi:namedview
     id="namedview1"
     pagecolor="#ffffff"
     bordercolor="#000000"
     borderopacity="0.25"
     inkscape:showpageshadow="2"
     inkscape:pageopacity="0.0"
     inkscape:pagecheckerboard="0"
     inkscape:deskcolor="#d1d1d1"
     inkscape:zoom="35.620504"
     inkscape:cx="2.4003029"
     inkscape:cy="8.674779"
     inkscape:window-width="2560"
     inkscape:window-height="1011"
     inkscape:window-x="0"
     inkscape:window-y="0"
     inkscape:window-maximized="1"
     inkscape:current-layer="svg1" /><g
     id="g2"
     transform="translate(0.21055275,0.2947734)"><path
       d="M 13.29318,2.7518668 C 13.29318,1.2317357 10.82861,1.9263065e-7 7.7894476,1.9263065e-7 4.7502861,1.9263065e-7 2.2857145,1.2317357 2.2857145,2.7518668 c 0,0.044029 0.022016,0.084757 0.026417,0.1287874 h -0.026417 v 9.7658238 l 0.061642,0.392966 c 0.3082091,1.331904 2.6120717,2.371009 5.4420913,2.371009 2.8300192,0 5.1338812,-1.039105 5.4420902,-2.371009 l 0.06164,-0.392966 V 2.8806542 h -0.02641 c 0.0044,-0.04403 0.02641,-0.084757 0.02641,-0.1287874 z M 7.7894476,1.1359707 c 2.6880234,0 4.4029874,1.0611198 4.4029874,1.6158961 0,0.5547762 -1.714964,1.615896 -4.4029874,1.615896 -2.6880232,0 -4.4029865,-1.0655227 -4.4029865,-1.615896 0,-0.5503734 1.7149633,-1.6158961 4.4029865,-1.6158961 z m 4.4029874,11.5116083 -0.03302,0.144198 c -0.126585,0.544869 -1.69405,1.51793 -4.3699644,1.51793 -2.6759151,0 -4.2433782,-0.973061 -4.3699641,-1.51793 L 3.3864611,12.647579 V 4.3919792 A 8.1609355,8.1609355 0 0 0 7.7894476,5.5037333 8.1609355,8.1609355 0 0 0 12.192435,4.3875762 Z"
       id="path1"
       style="stroke-width:1" /><g
       style="fill:#000000;stroke-width:84.1575"
       id="g1"
       transform="matrix(0.01856637,0,0,0.01856637,3.0364565,5.1148043)"><g
         id="5151e0c8492e5103c096af88a51f6584"
         style="stroke-width:84.1575">

<path
   display="inline"
   d="m 511.5,101.762 -11.253,16.879 c 0,0 -28.133,-31.879 -79.694,-26.257 C 368.979,98.01 278.036,150.52 263.968,265.845 249.904,381.169 305.225,506.81 305.225,506.81 H 55.821 c 0,0 -6.562,-41.256 9.377,-120.014 C 81.134,308.036 104.575,255.531 144.892,180.52 185.209,105.513 249.903,43.63 343.665,35.196 437.429,26.755 511.5,101.762 511.5,101.762 Z M 6.126,381.17 0.5,428.053 46.443,433.676 54.885,384.92 Z M 96.138,241.468 53.01,224.588 38.946,263.964 83.014,278.028 Z m 73.136,-119.075 -32.819,-21.566 -26.252,29.06 33.754,22.506 z M 263.968,45.51 241.466,20.193 210.527,36.132 233.029,63.32 Z M 364.297,31.446 360.541,7.069 320.228,5.19 325.85,32.387 Z m 117.199,25.313 -30.939,-22.502 -0.939,16.875 26.253,14.064 z m -36.57,63.754 25.317,2.811 v -11.249 l -25.317,-5.626 z m -80.629,-1.871 12.184,22.498 17.815,-14.064 -3.751,-15 z m -19.692,57.196 -18.755,-28.128 -19.687,17.815 27.188,30 z m -68.445,74.063 31.876,27.196 7.502,-30.943 -27.188,-20.626 z m -2.814,93.767 39.381,16.875 -1.871,-30.939 -35.635,-18.754 z m 72.191,120.016 -17.811,-36.57 h -41.253 l 9.378,33.758 z"
   id="path1-5"
   style="stroke-width:84.1575">

</path>

</g></g></g></svg>
