<?xml version="1.0" encoding="UTF-8" standalone="no"?>
<!-- Created with Inkscape (http://www.inkscape.org/) -->

<svg
   width="256"
   height="256"
   viewBox="0 0 67.733334 67.733334"
   version="1.1"
   id="svg1"
   xml:space="preserve"
   xmlns="http://www.w3.org/2000/svg"
   xmlns:svg="http://www.w3.org/2000/svg"><defs
     id="defs1" /><g
     id="layer1"><g
       id="g9"
       transform="matrix(1.9893528,0,0,1.9893528,81.31304,0.15619602)"
       style="stroke-width:0.502676"><path
         id="rect5"
         style="fill:#3068c6;fill-opacity:1;stroke-width:0.1064;stroke-linecap:round;stroke-linejoin:round;stroke-dasharray:0.851199, 0.425599"
         d="m -40.807617,18.715907 h 22.5772 v 7.041178 c -2.665049,5.133246 -19.730443,5.042392 -22.5772,0 z" /><path
         id="path6"
         style="fill:#2a7eef;fill-opacity:1;stroke-width:0.1064;stroke-linecap:round;stroke-linejoin:round;stroke-dasharray:0.851199, 0.425599"
         d="m -40.807617,11.674729 h 22.5772 v 7.041178 c -2.665049,5.133246 -19.730443,5.042392 -22.5772,0 z" /><path
         id="path7"
         style="fill:#47bbfa;fill-opacity:1;stroke-width:0.1064;stroke-linecap:round;stroke-linejoin:round;stroke-dasharray:0.851199, 0.425599"
         d="m -40.807617,4.633551 h 22.5772 v 7.041178 c -2.665049,5.133246 -19.730443,5.042392 -22.5772,0 z" /><ellipse
         style="fill:#50e6ff;fill-opacity:1;stroke-width:0.1064;stroke-linecap:round;stroke-linejoin:round;stroke-dasharray:0.851184, 0.425599"
         id="path5"
         cx="-29.519016"
         cy="4.2247076"
         ry="4.2247076"
         rx="11.288598" /><circle
         style="fill:#ff2a2a;stroke-width:0.1064;stroke-linecap:round;stroke-linejoin:round;stroke-dasharray:0.851199, 0.425599"
         id="path8"
         cx="-18.230417"
         cy="22.528946"
         r="11.337725" /><g
         style="fill:#ffffff;stroke-width:7.07325"
         id="g8"
         transform="matrix(0.02938001,0,0,0.02938001,-25.7517,15.007663)"><g
           id="5151e0c8492e5103c096af88a51f6584"
           style="fill:#ffffff;stroke-width:7.07325">

<path
   display="inline"
   d="m 511.5,101.762 -11.253,16.879 c 0,0 -28.133,-31.879 -79.694,-26.257 C 368.979,98.01 278.036,150.52 263.968,265.845 249.904,381.169 305.225,506.81 305.225,506.81 H 55.821 c 0,0 -6.562,-41.256 9.377,-120.014 C 81.134,308.036 104.575,255.531 144.892,180.52 185.209,105.513 249.903,43.63 343.665,35.196 437.429,26.755 511.5,101.762 511.5,101.762 Z M 6.126,381.17 0.5,428.053 46.443,433.676 54.885,384.92 Z M 96.138,241.468 53.01,224.588 38.946,263.964 83.014,278.028 Z m 73.136,-119.075 -32.819,-21.566 -26.252,29.06 33.754,22.506 z M 263.968,45.51 241.466,20.193 210.527,36.132 233.029,63.32 Z M 364.297,31.446 360.541,7.069 320.228,5.19 325.85,32.387 Z m 117.199,25.313 -30.939,-22.502 -0.939,16.875 26.253,14.064 z m -36.57,63.754 25.317,2.811 v -11.249 l -25.317,-5.626 z m -80.629,-1.871 12.184,22.498 17.815,-14.064 -3.751,-15 z m -19.692,57.196 -18.755,-28.128 -19.687,17.815 27.188,30 z m -68.445,74.063 31.876,27.196 7.502,-30.943 -27.188,-20.626 z m -2.814,93.767 39.381,16.875 -1.871,-30.939 -35.635,-18.754 z m 72.191,120.016 -17.811,-36.57 h -41.253 l 9.378,33.758 z"
   id="path1"
   style="fill:#ffffff;stroke-width:7.07325">

</path>

</g></g></g></g></svg>
